<svg id="Layer_1" data-name="Layer 1" xmlns="http://www.w3.org/2000/svg" viewBox="0 0 32 32">
  <defs>
    <style>
      .cls-1 {
        fill: #3a4580;
      }

      .cls-2 {
        fill: #4a57a3;
        stroke: #4a57a3;
      }

      .cls-2, .cls-3 {
        stroke-linecap: round;
        stroke-linejoin: round;
      }

      .cls-3 {
        fill: none;
        stroke: #000933;
      }
    </style>
  </defs>
  <path class="cls-1" d="M16,1A28.88,28.88,0,0,1,3.44,4.44C3.44,27.37,16,31,16,31S28.56,27.37,28.56,4.44A28.88,28.88,0,0,1,16,1Zm3,18.05H13l-3.7-4.64,1.32-5.78L16,6.05l5.35,2.58,1.32,5.78Z"/>
  <polygon class="cls-2" points="13.03 19.05 16 31 18.97 19.05 13.03 19.05"/>
  <polygon class="cls-2" points="22.67 14.41 28.56 4.44 21.35 8.63 22.67 14.41"/>
  <polygon class="cls-2" points="9.33 14.41 3.44 4.44 10.65 8.63 9.33 14.41"/>
  <path class="cls-3" d="M16,1A28.88,28.88,0,0,1,3.44,4.44C3.44,27.37,16,31,16,31S28.56,27.37,28.56,4.44A28.88,28.88,0,0,1,16,1Zm3,18.05H13l-3.7-4.64,1.32-5.78L16,6.05l5.35,2.58,1.32,5.78Z"/>
</svg>
