<svg xmlns="http://www.w3.org/2000/svg" viewBox="0 0 96 40">
  <defs>
    <style>
      .cls-1 {
        fill: #3a4580;
      }

      .cls-2 {
        fill: #4a57a3;
        stroke: #4a57a3;
      }

      .cls-2, .cls-3 {
        stroke-linecap: round;
        stroke-linejoin: round;
        stroke-width: 0.67px;
      }

      .cls-3 {
        fill: none;
        stroke: #000933;
      }

      .cls-4 {
        fill: #000933;
      }
    </style>
  </defs>
  <g id="Layer_1_copy" data-name="Layer 1 copy">
    <g>
      <path class="cls-1" d="M48,1.19a19.21,19.21,0,0,1-8.37,2.3c0,15.28,8.37,17.7,8.37,17.7s8.37-2.42,8.37-17.7A19.21,19.21,0,0,1,48,1.19Zm2,12H46l-2.47-3.1.88-3.85L48,4.56l3.57,1.72.88,3.85Z"/>
      <polygon class="cls-2" points="46.02 13.23 48 21.2 49.98 13.23 46.02 13.23"/>
      <polygon class="cls-2" points="52.45 10.14 56.37 3.49 51.56 6.28 52.45 10.14"/>
      <polygon class="cls-2" points="43.55 10.14 39.63 3.49 44.44 6.28 43.55 10.14"/>
      <path class="cls-3" d="M48,1.19a19.21,19.21,0,0,1-8.37,2.3c0,15.28,8.37,17.7,8.37,17.7s8.37-2.42,8.37-17.7A19.21,19.21,0,0,1,48,1.19Zm2,12H46l-2.47-3.1.88-3.85L48,4.56l3.57,1.72.88,3.85Z"/>
    </g>
    <g>
      <path class="cls-4" d="M11,35.44a4.86,4.86,0,0,1-2.59-.66A4.36,4.36,0,0,1,6.7,32.94a6.79,6.79,0,0,1,0-5.49,4.36,4.36,0,0,1,1.66-1.84A4.87,4.87,0,0,1,11,24.94a4.7,4.7,0,0,1,2.9.88,4.51,4.51,0,0,1,1.63,2.35l-1.7.46a3,3,0,0,0-1-1.54A2.87,2.87,0,0,0,11,26.53,3,3,0,0,0,9.26,27a2.78,2.78,0,0,0-1,1.28,5.54,5.54,0,0,0,0,3.85,2.78,2.78,0,0,0,1,1.28,3,3,0,0,0,1.7.46,2.87,2.87,0,0,0,1.83-.56,3.08,3.08,0,0,0,1-1.54l1.7.46a4.51,4.51,0,0,1-1.63,2.35A4.69,4.69,0,0,1,11,35.44Z"/>
      <path class="cls-4" d="M20.36,35.44a3.77,3.77,0,0,1-2-.51,3.5,3.5,0,0,1-1.31-1.41,4.44,4.44,0,0,1-.47-2.06,4.36,4.36,0,0,1,.48-2.09A3.5,3.5,0,0,1,18.4,28a4,4,0,0,1,4,0,3.59,3.59,0,0,1,1.32,1.41,4.44,4.44,0,0,1,.46,2.07,4.33,4.33,0,0,1-.47,2.07,3.45,3.45,0,0,1-1.32,1.41A3.74,3.74,0,0,1,20.36,35.44Zm0-1.58a1.74,1.74,0,0,0,1.5-.67,3.32,3.32,0,0,0,0-3.49,1.74,1.74,0,0,0-1.49-.65,2,2,0,0,0-1.12.3,1.79,1.79,0,0,0-.64.85,3.47,3.47,0,0,0-.21,1.26,2.78,2.78,0,0,0,.5,1.75A1.74,1.74,0,0,0,20.36,33.86Z"/>
      <path class="cls-4" d="M25.67,35.23V27.67h1.5v1.85L27,29.28a2.89,2.89,0,0,1,.38-.69,2,2,0,0,1,.56-.52,2.52,2.52,0,0,1,.62-.29,2.81,2.81,0,0,1,.7-.14,3.9,3.9,0,0,1,.69,0v1.58a1.9,1.9,0,0,0-.77-.06,1.74,1.74,0,0,0-.79.24,1.81,1.81,0,0,0-.57.49,1.86,1.86,0,0,0-.33.66,3,3,0,0,0-.1.81v3.84Z"/>
      <path class="cls-4" d="M34.56,35.44a4,4,0,0,1-2-.49,3.45,3.45,0,0,1-1.35-1.38,4.09,4.09,0,0,1-.49-2,4.55,4.55,0,0,1,.48-2.15A3.36,3.36,0,0,1,32.5,28a3.72,3.72,0,0,1,2-.51,3.58,3.58,0,0,1,2,.55,3.32,3.32,0,0,1,1.22,1.55,5.49,5.49,0,0,1,.3,2.36H36.31v-.61a3,3,0,0,0-.44-1.8,1.56,1.56,0,0,0-1.34-.57,1.85,1.85,0,0,0-1.54.64,3,3,0,0,0-.51,1.88A2.74,2.74,0,0,0,33,33.23a1.76,1.76,0,0,0,1.47.63,2,2,0,0,0,1.07-.27,1.85,1.85,0,0,0,.7-.81l1.67.51a3.39,3.39,0,0,1-1.35,1.59A3.65,3.65,0,0,1,34.56,35.44ZM32,31.92V30.65h5.2v1.27Z"/>
      <path class="cls-4" d="M41.26,35.23,38.31,25.15h1.77l2,7.28,2-7.26,1.77,0,2,7.28,2-7.28h1.77L48.7,35.23H47L45,28.07l-2,7.16Z"/>
      <path class="cls-4" d="M54.27,35.44a2.83,2.83,0,0,1-1.39-.31A2.06,2.06,0,0,1,52,34.3a2.21,2.21,0,0,1-.3-1.14,2.38,2.38,0,0,1,.19-1,2,2,0,0,1,.56-.76,3.12,3.12,0,0,1,1-.52,7.48,7.48,0,0,1,1.06-.26c.41-.08.86-.16,1.33-.22l1.51-.23-.61.35a1.57,1.57,0,0,0-.35-1.16A1.64,1.64,0,0,0,55.2,29a2.19,2.19,0,0,0-1,.24,1.32,1.32,0,0,0-.66.82L52,29.59a2.77,2.77,0,0,1,1.07-1.54,3.46,3.46,0,0,1,2.12-.59,4.44,4.44,0,0,1,1.77.33,2.19,2.19,0,0,1,1.14,1.08,2.28,2.28,0,0,1,.25.82c0,.27,0,.58,0,.9v4.64H56.92V33.6l.25.26a3.28,3.28,0,0,1-1.2,1.2A3.37,3.37,0,0,1,54.27,35.44Zm.33-1.34a2.22,2.22,0,0,0,1-.2,1.87,1.87,0,0,0,.65-.5,1.82,1.82,0,0,0,.33-.55,2.12,2.12,0,0,0,.15-.74c0-.28,0-.5,0-.68l.51.16-1.31.21L55,32a5.07,5.07,0,0,0-.7.18,2.24,2.24,0,0,0-.49.24,1,1,0,0,0-.31.32.79.79,0,0,0-.11.43.81.81,0,0,0,.14.49.87.87,0,0,0,.41.34A1.47,1.47,0,0,0,54.6,34.1Z"/>
      <path class="cls-4" d="M60.22,35.23V27.67h1.49v1.85l-.18-.24a2.86,2.86,0,0,1,.37-.69,2.3,2.3,0,0,1,.56-.52,2.7,2.7,0,0,1,.62-.29,2.81,2.81,0,0,1,.7-.14,3.9,3.9,0,0,1,.69,0v1.58a1.9,1.9,0,0,0-.77-.06,1.78,1.78,0,0,0-.79.24,1.81,1.81,0,0,0-.57.49,2,2,0,0,0-.32.66,3,3,0,0,0-.11.81v3.84Z"/>
      <path class="cls-4" d="M68.7,35.44a3.14,3.14,0,0,1-1.82-.52,3.53,3.53,0,0,1-1.21-1.43,5.05,5.05,0,0,1,0-4.08A3.41,3.41,0,0,1,66.9,28a3.25,3.25,0,0,1,1.86-.53,3,3,0,0,1,1.81.53,3.16,3.16,0,0,1,1.11,1.42,5.67,5.67,0,0,1,0,4.08,3.22,3.22,0,0,1-1.13,1.43A3.15,3.15,0,0,1,68.7,35.44ZM69,33.93a1.77,1.77,0,0,0,1.1-.31,1.79,1.79,0,0,0,.61-.87,4.51,4.51,0,0,0,0-2.59,1.84,1.84,0,0,0-.6-.87A1.66,1.66,0,0,0,69,29a1.82,1.82,0,0,0-1.12.33,2,2,0,0,0-.65.9,3.83,3.83,0,0,0,0,2.5,1.82,1.82,0,0,0,.63.89A1.72,1.72,0,0,0,69,33.93Zm1.9,1.3v-5.3h-.21V25.15h1.7V35.23Z"/>
      <path class="cls-4" d="M77.74,35.44a4,4,0,0,1-2-.49,3.45,3.45,0,0,1-1.35-1.38,4.09,4.09,0,0,1-.49-2,4.55,4.55,0,0,1,.48-2.15A3.49,3.49,0,0,1,75.68,28a3.74,3.74,0,0,1,2-.51,3.58,3.58,0,0,1,2,.55,3.26,3.26,0,0,1,1.22,1.55,5.2,5.2,0,0,1,.3,2.36H79.49v-.61a3.13,3.13,0,0,0-.43-1.8,1.59,1.59,0,0,0-1.35-.57,1.86,1.86,0,0,0-1.54.64,3,3,0,0,0-.5,1.88,2.74,2.74,0,0,0,.5,1.77,1.78,1.78,0,0,0,1.47.63,2.06,2.06,0,0,0,1.08-.27,1.83,1.83,0,0,0,.69-.81l1.67.51a3.43,3.43,0,0,1-1.34,1.59A3.68,3.68,0,0,1,77.74,35.44Zm-2.6-3.52V30.65h5.2v1.27Z"/>
      <path class="cls-4" d="M82.51,35.23V27.67H84V30h.2v5.21Zm5.24,0V31.59c0-.23,0-.5,0-.79a2.7,2.7,0,0,0-.23-.83,1.56,1.56,0,0,0-.53-.66,1.51,1.51,0,0,0-1-.26,2,2,0,0,0-.64.1,1.45,1.45,0,0,0-.57.36,1.83,1.83,0,0,0-.41.7,3.63,3.63,0,0,0-.16,1.14l-1-.43a4,4,0,0,1,.38-1.75,3,3,0,0,1,1.1-1.25,3.26,3.26,0,0,1,1.79-.46,3,3,0,0,1,1.39.28,2.45,2.45,0,0,1,.87.71,3.14,3.14,0,0,1,.47.93,4.77,4.77,0,0,1,.2.92c0,.29,0,.53,0,.71v4.22Z"/>
    </g>
  </g>
</svg>
