<svg xmlns="http://www.w3.org/2000/svg" viewBox="0 0 112 24">
  <defs>
    <style>
      .cls-1 {
        fill: #3a4580;
      }

      .cls-2 {
        fill: #4a57a3;
        stroke: #4a57a3;
      }

      .cls-2, .cls-3 {
        stroke-linecap: round;
        stroke-linejoin: round;
        stroke-width: 0.67px;
      }

      .cls-3 {
        fill: none;
        stroke: #000933;
      }

      .cls-4 {
        fill: #000933;
      }
    </style>
  </defs>
  <g id="Layer_1_copy_2" data-name="Layer 1 copy 2">
    <g>
      <path class="cls-1" d="M10.7,2A19.27,19.27,0,0,1,2.33,4.29C2.33,19.58,10.7,22,10.7,22s8.38-2.42,8.38-17.71A19.28,19.28,0,0,1,10.7,2Zm2,12h-4L6.26,10.94l.88-3.85L10.7,5.37l3.57,1.72.88,3.85Z"/>
      <polygon class="cls-2" points="8.72 14.04 10.7 22 12.68 14.04 8.72 14.04"/>
      <polygon class="cls-2" points="15.15 10.94 19.08 4.3 14.27 7.09 15.15 10.94"/>
      <polygon class="cls-2" points="6.26 10.94 2.33 4.3 7.14 7.09 6.26 10.94"/>
      <path class="cls-3" d="M10.7,2A19.27,19.27,0,0,1,2.33,4.29C2.33,19.58,10.7,22,10.7,22s8.38-2.42,8.38-17.71A19.28,19.28,0,0,1,10.7,2Zm2,12h-4L6.26,10.94l.88-3.85L10.7,5.37l3.57,1.72.88,3.85Z"/>
    </g>
    <g>
      <path class="cls-4" d="M30.32,16.44a4.86,4.86,0,0,1-2.59-.66,4.36,4.36,0,0,1-1.66-1.84,6.25,6.25,0,0,1-.57-2.75,6.24,6.24,0,0,1,.57-2.74,4.36,4.36,0,0,1,1.66-1.84,4.87,4.87,0,0,1,2.59-.67,4.7,4.7,0,0,1,2.9.88,4.59,4.59,0,0,1,1.64,2.35l-1.71.46a3,3,0,0,0-1-1.54,2.87,2.87,0,0,0-1.83-.56A3,3,0,0,0,28.63,8a2.78,2.78,0,0,0-1,1.28,5.1,5.1,0,0,0-.34,1.92,4.93,4.93,0,0,0,.34,1.93,2.7,2.7,0,0,0,1,1.28,3,3,0,0,0,1.7.46,2.87,2.87,0,0,0,1.83-.56,3,3,0,0,0,1-1.54l1.71.47a4.6,4.6,0,0,1-1.64,2.34A4.69,4.69,0,0,1,30.32,16.44Z"/>
      <path class="cls-4" d="M39.73,16.44a3.79,3.79,0,0,1-2-.51,3.5,3.5,0,0,1-1.31-1.41A4.44,4.44,0,0,1,36,12.46a4.36,4.36,0,0,1,.48-2.09A3.45,3.45,0,0,1,37.78,9a3.68,3.68,0,0,1,1.95-.51,3.76,3.76,0,0,1,2,.52A3.45,3.45,0,0,1,43,10.39a4.45,4.45,0,0,1,.47,2.07A4.45,4.45,0,0,1,43,14.53a3.54,3.54,0,0,1-1.33,1.41A3.74,3.74,0,0,1,39.73,16.44Zm0-1.58a1.71,1.71,0,0,0,1.5-.67,2.86,2.86,0,0,0,.49-1.73,2.79,2.79,0,0,0-.5-1.76,1.76,1.76,0,0,0-1.49-.65,1.91,1.91,0,0,0-1.11.3,1.8,1.8,0,0,0-.65.85,3.47,3.47,0,0,0-.21,1.26,2.84,2.84,0,0,0,.5,1.75A1.75,1.75,0,0,0,39.73,14.86Z"/>
      <path class="cls-4" d="M45.05,16.23V8.67h1.49v1.85l-.18-.24a2.55,2.55,0,0,1,.37-.69,2.3,2.3,0,0,1,.56-.52,2.7,2.7,0,0,1,.62-.29,2.81,2.81,0,0,1,.7-.14,3.9,3.9,0,0,1,.69,0v1.58a1.9,1.9,0,0,0-.77-.06,1.78,1.78,0,0,0-.79.24,1.81,1.81,0,0,0-.57.49,2,2,0,0,0-.32.66,3,3,0,0,0-.11.81v3.84Z"/>
      <path class="cls-4" d="M53.93,16.44a4,4,0,0,1-2-.49,3.51,3.51,0,0,1-1.35-1.38,4.09,4.09,0,0,1-.49-2,4.55,4.55,0,0,1,.48-2.15A3.49,3.49,0,0,1,51.87,9a3.74,3.74,0,0,1,2-.51,3.56,3.56,0,0,1,2,.55,3.26,3.26,0,0,1,1.22,1.55,5.2,5.2,0,0,1,.3,2.36H55.68v-.61a3.06,3.06,0,0,0-.43-1.8,1.59,1.59,0,0,0-1.35-.57,1.86,1.86,0,0,0-1.54.64,3,3,0,0,0-.5,1.88,2.8,2.8,0,0,0,.5,1.77,1.78,1.78,0,0,0,1.47.63,2.06,2.06,0,0,0,1.08-.27,1.83,1.83,0,0,0,.69-.81l1.67.51a3.43,3.43,0,0,1-1.34,1.59A3.68,3.68,0,0,1,53.93,16.44Zm-2.6-3.52V11.65h5.2v1.27Z"/>
      <path class="cls-4" d="M60.63,16.23l-3-10.08h1.77l2,7.29,2-7.27,1.77,0,2,7.29,2-7.29H71L68.08,16.23H66.41L64.35,9.07l-2.06,7.16Z"/>
      <path class="cls-4" d="M73.64,16.44a2.79,2.79,0,0,1-1.38-.31,2,2,0,0,1-.86-.83,2.3,2.3,0,0,1-.29-1.14,2.55,2.55,0,0,1,.18-1,2.06,2.06,0,0,1,.56-.76,3.12,3.12,0,0,1,1-.52,8.87,8.87,0,0,1,1.07-.26c.41-.08.85-.16,1.33-.22l1.5-.23-.6.35a1.63,1.63,0,0,0-.35-1.16A1.67,1.67,0,0,0,74.57,10a2.12,2.12,0,0,0-1,.24,1.33,1.33,0,0,0-.67.82l-1.54-.48a2.82,2.82,0,0,1,1.07-1.54,3.46,3.46,0,0,1,2.12-.59,4.45,4.45,0,0,1,1.78.33,2.17,2.17,0,0,1,1.13,1.08,2.28,2.28,0,0,1,.25.82,8.4,8.4,0,0,1,0,.9v4.64H76.29V14.6l.25.26a3.33,3.33,0,0,1-1.19,1.2A3.43,3.43,0,0,1,73.64,16.44ZM74,15.1a2.25,2.25,0,0,0,1-.2,2,2,0,0,0,.65-.5,1.59,1.59,0,0,0,.32-.55,2.12,2.12,0,0,0,.15-.74c0-.28,0-.5,0-.68l.52.16-1.31.21-.94.17a4.9,4.9,0,0,0-.69.18,2.33,2.33,0,0,0-.5.24,1,1,0,0,0-.31.32.89.89,0,0,0-.11.43.94.94,0,0,0,.14.5,1,1,0,0,0,.41.34A1.64,1.64,0,0,0,74,15.1Z"/>
      <path class="cls-4" d="M79.59,16.23V8.67h1.49v1.85l-.18-.24a2.58,2.58,0,0,1,.38-.69,2,2,0,0,1,.56-.52,2.52,2.52,0,0,1,.62-.29,2.82,2.82,0,0,1,.69-.14,4.06,4.06,0,0,1,.7,0v1.58a2,2,0,0,0-.78-.06,1.7,1.7,0,0,0-.78.24,1.61,1.61,0,0,0-.57.49,1.86,1.86,0,0,0-.33.66,3,3,0,0,0-.1.81v3.84Z"/>
      <path class="cls-4" d="M88.07,16.44a3.16,3.16,0,0,1-1.82-.52A3.53,3.53,0,0,1,85,14.49a4.76,4.76,0,0,1-.42-2,4.64,4.64,0,0,1,.43-2.05A3.39,3.39,0,0,1,86.27,9a3.3,3.3,0,0,1,1.86-.53A3,3,0,0,1,89.94,9a3.16,3.16,0,0,1,1.11,1.42,5.28,5.28,0,0,1,.38,2.05,5.28,5.28,0,0,1-.38,2,3.22,3.22,0,0,1-1.13,1.43A3.13,3.13,0,0,1,88.07,16.44Zm.26-1.51a1.74,1.74,0,0,0,1.09-.31,1.79,1.79,0,0,0,.61-.87,3.93,3.93,0,0,0,.19-1.29,3.92,3.92,0,0,0-.19-1.3,1.78,1.78,0,0,0-.6-.87A1.66,1.66,0,0,0,88.38,10a1.84,1.84,0,0,0-1.12.33,2,2,0,0,0-.65.9,3.83,3.83,0,0,0,0,2.5,2,2,0,0,0,.63.89A1.75,1.75,0,0,0,88.33,14.93Zm1.89,1.3v-5.3H90V6.15h1.7V16.23Z"/>
      <path class="cls-4" d="M97.11,16.44a4,4,0,0,1-2-.49,3.54,3.54,0,0,1-1.36-1.38,4.2,4.2,0,0,1-.48-2,4.55,4.55,0,0,1,.47-2.15A3.49,3.49,0,0,1,95.05,9a3.75,3.75,0,0,1,2-.51A3.55,3.55,0,0,1,99,9a3.26,3.26,0,0,1,1.22,1.55,5.34,5.34,0,0,1,.31,2.36H98.86v-.61a3.06,3.06,0,0,0-.43-1.8,1.58,1.58,0,0,0-1.35-.57,1.86,1.86,0,0,0-1.54.64,3,3,0,0,0-.5,1.88,2.8,2.8,0,0,0,.5,1.77,1.79,1.79,0,0,0,1.48.63,2,2,0,0,0,1.07-.27,1.92,1.92,0,0,0,.7-.81l1.66.51a3.43,3.43,0,0,1-1.34,1.59A3.66,3.66,0,0,1,97.11,16.44Zm-2.6-3.52V11.65h5.2v1.27Z"/>
      <path class="cls-4" d="M101.88,16.23V8.67h1.5V11h.21v5.21Zm5.24,0V12.59a5.77,5.77,0,0,0-.05-.79,3,3,0,0,0-.22-.83,1.58,1.58,0,0,0-.54-.66,1.51,1.51,0,0,0-1-.26,2,2,0,0,0-.64.1,1.45,1.45,0,0,0-.57.36,1.83,1.83,0,0,0-.41.7,3.66,3.66,0,0,0-.15,1.14l-1-.43a4,4,0,0,1,.37-1.75,3,3,0,0,1,1.1-1.25,3.3,3.3,0,0,1,1.8-.46,3,3,0,0,1,1.38.28,2.37,2.37,0,0,1,.87.71,3.43,3.43,0,0,1,.48.93,5.66,5.66,0,0,1,.2.92c0,.3,0,.53,0,.71v4.22Z"/>
    </g>
  </g>
</svg>
