<?xml version="1.0" encoding="utf-8"?>
<svg version="1.1" id="Layer_1" xmlns="http://www.w3.org/2000/svg" xmlns:xlink="http://www.w3.org/1999/xlink" x="0px" y="0px"
	 viewBox="0 0 300 100">
<style type="text/css">
	.st0{fill:#EBEEFF;stroke:#071345;stroke-miterlimit:10;}
	.st1{fill:#071345;}
	.st2{fill:#EBEEFF;}
	.st3{fill:none;stroke:#071345;stroke-miterlimit:10;}
</style>
<g>
	<path class="st0" d="M182,49.3h-64c-4.4,0-8-3.6-8-8v-24c0-4.4,3.6-8,8-8h64c4.4,0,8,3.6,8,8v24C190,45.7,186.4,49.3,182,49.3z"/>
	<g>
		<g>
			<path class="st1" d="M130.2,31.7l1.8-5.8h1.4l1.8,5.8h-1l-1.6-5.2h0.2l-1.6,5.2H130.2z M131.2,30.4v-0.9h3v0.9H131.2z"/>
			<path class="st1" d="M135.9,31.7v-5.8h2.4c0.1,0,0.1,0,0.2,0s0.2,0,0.2,0c0.3,0.1,0.6,0.2,0.8,0.3c0.2,0.2,0.4,0.4,0.5,0.6
				s0.2,0.5,0.2,0.9c0,0.3-0.1,0.6-0.2,0.9c-0.1,0.3-0.3,0.5-0.5,0.6c-0.2,0.2-0.5,0.3-0.8,0.3c-0.1,0-0.2,0-0.2,0
				c-0.1,0-0.2,0-0.2,0h-1.4v2H135.9z M136.9,28.8h1.4c0.1,0,0.1,0,0.2,0s0.1,0,0.2,0c0.2,0,0.3-0.1,0.4-0.2
				c0.1-0.1,0.2-0.2,0.2-0.3c0-0.1,0.1-0.3,0.1-0.4c0-0.1,0-0.2-0.1-0.4c0-0.1-0.1-0.2-0.2-0.3c-0.1-0.1-0.2-0.2-0.4-0.2
				c-0.1,0-0.1,0-0.2,0s-0.1,0-0.2,0h-1.4V28.8z"/>
			<path class="st1" d="M141.1,31.7v-5.8h1v5.8H141.1z"/>
			<path class="st1" d="M147,31.8c-0.4,0-0.8-0.1-1.1-0.2s-0.6-0.4-0.8-0.6s-0.4-0.6-0.4-1l1-0.2c0.1,0.3,0.3,0.6,0.5,0.8
				c0.3,0.2,0.6,0.3,0.9,0.3c0.2,0,0.4,0,0.6-0.1c0.2-0.1,0.3-0.2,0.4-0.3c0.1-0.1,0.2-0.3,0.2-0.5c0-0.1,0-0.2,0-0.2
				c0-0.1-0.1-0.1-0.1-0.2c-0.1-0.1-0.1-0.1-0.2-0.1c-0.1,0-0.2-0.1-0.3-0.1l-1.5-0.4c-0.1,0-0.3-0.1-0.4-0.2
				c-0.1-0.1-0.3-0.1-0.4-0.3s-0.2-0.3-0.3-0.4c-0.1-0.2-0.1-0.4-0.1-0.6c0-0.4,0.1-0.7,0.3-0.9c0.2-0.3,0.4-0.4,0.8-0.6
				c0.3-0.1,0.7-0.2,1.1-0.2c0.4,0,0.7,0.1,1.1,0.2c0.3,0.1,0.6,0.3,0.8,0.6c0.2,0.3,0.4,0.6,0.4,0.9l-1,0.2c0-0.2-0.1-0.4-0.2-0.5
				c-0.1-0.1-0.3-0.3-0.4-0.3s-0.4-0.1-0.6-0.1c-0.2,0-0.4,0-0.5,0.1c-0.2,0.1-0.3,0.1-0.4,0.3c-0.1,0.1-0.1,0.2-0.1,0.4
				c0,0.1,0,0.3,0.1,0.3c0.1,0.1,0.2,0.2,0.3,0.2c0.1,0.1,0.3,0.1,0.4,0.1l1,0.3c0.1,0,0.3,0.1,0.5,0.2s0.3,0.2,0.5,0.3
				c0.2,0.1,0.3,0.3,0.4,0.5c0.1,0.2,0.2,0.4,0.2,0.7c0,0.3-0.1,0.6-0.2,0.8c-0.1,0.2-0.3,0.4-0.5,0.6c-0.2,0.1-0.5,0.3-0.7,0.3
				C147.6,31.8,147.3,31.8,147,31.8z"/>
			<path class="st1" d="M152.1,31.8c-0.4,0-0.8-0.1-1.2-0.3c-0.3-0.2-0.6-0.5-0.8-0.8c-0.2-0.3-0.3-0.7-0.3-1.2
				c0-0.5,0.1-0.9,0.3-1.2c0.2-0.3,0.4-0.6,0.8-0.8c0.3-0.2,0.7-0.3,1.1-0.3c0.4,0,0.8,0.1,1.1,0.3c0.3,0.2,0.5,0.5,0.7,0.9
				c0.2,0.4,0.2,0.8,0.2,1.3h-1v-0.4c0-0.5-0.1-0.8-0.2-1c-0.2-0.2-0.4-0.3-0.8-0.3c-0.4,0-0.7,0.1-0.9,0.4s-0.3,0.6-0.3,1.1
				c0,0.4,0.1,0.8,0.3,1c0.2,0.2,0.5,0.4,0.8,0.4c0.2,0,0.4-0.1,0.6-0.2s0.3-0.3,0.4-0.5l1,0.3c-0.2,0.4-0.4,0.7-0.8,0.9
				C152.9,31.7,152.5,31.8,152.1,31.8z M150.6,29.8v-0.7h3v0.7H150.6z"/>
			<path class="st1" d="M154.9,31.7v-4.3h0.9v1.1l-0.1-0.1c0.1-0.1,0.1-0.3,0.2-0.4c0.1-0.1,0.2-0.2,0.3-0.3
				c0.1-0.1,0.2-0.1,0.4-0.2c0.1,0,0.3-0.1,0.4-0.1c0.1,0,0.3,0,0.4,0v0.9c-0.1,0-0.3,0-0.4,0c-0.2,0-0.3,0.1-0.5,0.1
				c-0.1,0.1-0.2,0.2-0.3,0.3S156,28.9,156,29c0,0.1-0.1,0.3-0.1,0.5v2.2H154.9z"/>
			<path class="st1" d="M159.3,31.7l-1.6-4.3h1l1.1,3.1l1.1-3.1h1l-1.6,4.3H159.3z"/>
			<path class="st1" d="M164.5,31.8c-0.4,0-0.8-0.1-1.2-0.3c-0.3-0.2-0.6-0.5-0.8-0.8c-0.2-0.3-0.3-0.7-0.3-1.2
				c0-0.5,0.1-0.9,0.3-1.2c0.2-0.3,0.4-0.6,0.8-0.8c0.3-0.2,0.7-0.3,1.1-0.3c0.4,0,0.8,0.1,1.1,0.3c0.3,0.2,0.5,0.5,0.7,0.9
				c0.2,0.4,0.2,0.8,0.2,1.3h-1v-0.4c0-0.5-0.1-0.8-0.2-1c-0.2-0.2-0.4-0.3-0.8-0.3c-0.4,0-0.7,0.1-0.9,0.4s-0.3,0.6-0.3,1.1
				c0,0.4,0.1,0.8,0.3,1c0.2,0.2,0.5,0.4,0.8,0.4c0.2,0,0.4-0.1,0.6-0.2s0.3-0.3,0.4-0.5l1,0.3c-0.2,0.4-0.4,0.7-0.8,0.9
				C165.3,31.7,164.9,31.8,164.5,31.8z M163,29.8v-0.7h3v0.7H163z"/>
			<path class="st1" d="M167.4,31.7v-4.3h0.9v1.1l-0.1-0.1c0.1-0.1,0.1-0.3,0.2-0.4c0.1-0.1,0.2-0.2,0.3-0.3
				c0.1-0.1,0.2-0.1,0.4-0.2c0.1,0,0.3-0.1,0.4-0.1c0.1,0,0.3,0,0.4,0v0.9c-0.1,0-0.3,0-0.4,0c-0.2,0-0.3,0.1-0.5,0.1
				c-0.1,0.1-0.2,0.2-0.3,0.3s-0.1,0.2-0.2,0.4c0,0.1-0.1,0.3-0.1,0.5v2.2H167.4z"/>
		</g>
	</g>
</g>
<g>
	<path class="st0" d="M83.6,49.3h-64c-4.4,0-8-3.6-8-8v-24c0-4.4,3.6-8,8-8h64c4.4,0,8,3.6,8,8v24C91.6,45.7,88,49.3,83.6,49.3z"/>
	<g>
		<g>
			<path class="st1" d="M30.2,31.7v-5.8h1.8c0,0,0.1,0,0.3,0c0.1,0,0.3,0,0.4,0c0.5,0.1,0.8,0.2,1.2,0.5c0.3,0.3,0.6,0.6,0.7,1
				c0.2,0.4,0.2,0.9,0.2,1.3c0,0.5-0.1,0.9-0.2,1.3c-0.2,0.4-0.4,0.7-0.7,1c-0.3,0.3-0.7,0.4-1.2,0.5c-0.1,0-0.3,0-0.4,0
				c-0.1,0-0.2,0-0.3,0H30.2z M31.2,30.8h0.9c0.1,0,0.2,0,0.3,0s0.2,0,0.3,0c0.3-0.1,0.5-0.2,0.7-0.4c0.2-0.2,0.3-0.4,0.4-0.7
				c0.1-0.3,0.1-0.6,0.1-0.9c0-0.3,0-0.6-0.1-0.9c-0.1-0.3-0.2-0.5-0.4-0.7c-0.2-0.2-0.4-0.3-0.7-0.4c-0.1,0-0.2,0-0.3,0
				c-0.1,0-0.2,0-0.3,0h-0.9V30.8z"/>
			<path class="st1" d="M35.8,31.7v-5.8h1l2.7,4.1v-4.1h1v5.8h-1l-2.7-4.1v4.1H35.8z"/>
			<path class="st1" d="M43.7,31.8c-0.4,0-0.8-0.1-1.1-0.2c-0.3-0.1-0.6-0.4-0.8-0.6c-0.2-0.3-0.4-0.6-0.4-1l1-0.2
				c0.1,0.3,0.3,0.6,0.5,0.8s0.6,0.3,0.9,0.3c0.2,0,0.4,0,0.6-0.1c0.2-0.1,0.3-0.2,0.4-0.3c0.1-0.1,0.2-0.3,0.2-0.5
				c0-0.1,0-0.2,0-0.2c0-0.1-0.1-0.1-0.1-0.2c-0.1-0.1-0.1-0.1-0.2-0.1s-0.2-0.1-0.3-0.1L42.8,29c-0.1,0-0.3-0.1-0.4-0.2
				c-0.1-0.1-0.3-0.1-0.4-0.3s-0.2-0.3-0.3-0.4c-0.1-0.2-0.1-0.4-0.1-0.6c0-0.4,0.1-0.7,0.3-0.9s0.4-0.4,0.8-0.6
				c0.3-0.1,0.7-0.2,1.1-0.2c0.4,0,0.7,0.1,1.1,0.2c0.3,0.1,0.6,0.3,0.8,0.6c0.2,0.3,0.4,0.6,0.4,0.9l-1,0.2c0-0.2-0.1-0.4-0.2-0.5
				c-0.1-0.1-0.3-0.3-0.4-0.3c-0.2-0.1-0.4-0.1-0.6-0.1c-0.2,0-0.4,0-0.5,0.1c-0.2,0.1-0.3,0.1-0.4,0.3c-0.1,0.1-0.1,0.2-0.1,0.4
				c0,0.1,0,0.3,0.1,0.3S42.9,28,43,28c0.1,0.1,0.3,0.1,0.4,0.1l1,0.3c0.1,0,0.3,0.1,0.5,0.2c0.2,0.1,0.3,0.2,0.5,0.3
				s0.3,0.3,0.4,0.5c0.1,0.2,0.2,0.4,0.2,0.7c0,0.3-0.1,0.6-0.2,0.8c-0.1,0.2-0.3,0.4-0.5,0.6c-0.2,0.1-0.5,0.3-0.7,0.3
				C44.3,31.8,44,31.8,43.7,31.8z"/>
			<path class="st1" d="M50.6,31.8c-0.4,0-0.8-0.1-1.1-0.2c-0.3-0.1-0.6-0.4-0.8-0.6c-0.2-0.3-0.4-0.6-0.4-1l1-0.2
				c0.1,0.3,0.3,0.6,0.5,0.8c0.3,0.2,0.6,0.3,0.9,0.3c0.2,0,0.4,0,0.6-0.1s0.3-0.2,0.4-0.3c0.1-0.1,0.2-0.3,0.2-0.5
				c0-0.1,0-0.2,0-0.2c0-0.1-0.1-0.1-0.1-0.2c-0.1-0.1-0.1-0.1-0.2-0.1s-0.2-0.1-0.3-0.1L49.7,29c-0.1,0-0.3-0.1-0.4-0.2
				c-0.1-0.1-0.3-0.1-0.4-0.3s-0.2-0.3-0.3-0.4c-0.1-0.2-0.1-0.4-0.1-0.6c0-0.4,0.1-0.7,0.3-0.9s0.4-0.4,0.8-0.6
				c0.3-0.1,0.7-0.2,1.1-0.2c0.4,0,0.7,0.1,1.1,0.2c0.3,0.1,0.6,0.3,0.8,0.6c0.2,0.3,0.4,0.6,0.4,0.9l-1,0.2c0-0.2-0.1-0.4-0.2-0.5
				s-0.3-0.3-0.4-0.3s-0.4-0.1-0.6-0.1c-0.2,0-0.4,0-0.5,0.1c-0.2,0.1-0.3,0.1-0.4,0.3c-0.1,0.1-0.1,0.2-0.1,0.4
				c0,0.1,0,0.3,0.1,0.3c0.1,0.1,0.2,0.2,0.3,0.2c0.1,0.1,0.3,0.1,0.4,0.1l1,0.3c0.1,0,0.3,0.1,0.5,0.2s0.3,0.2,0.5,0.3
				c0.2,0.1,0.3,0.3,0.4,0.5c0.1,0.2,0.2,0.4,0.2,0.7c0,0.3-0.1,0.6-0.2,0.8c-0.1,0.2-0.3,0.4-0.5,0.6c-0.2,0.1-0.5,0.3-0.7,0.3
				C51.1,31.8,50.9,31.8,50.6,31.8z"/>
			<path class="st1" d="M55.7,31.8c-0.4,0-0.8-0.1-1.2-0.3c-0.3-0.2-0.6-0.5-0.8-0.8c-0.2-0.3-0.3-0.7-0.3-1.2
				c0-0.5,0.1-0.9,0.3-1.2c0.2-0.3,0.4-0.6,0.8-0.8c0.3-0.2,0.7-0.3,1.1-0.3c0.4,0,0.8,0.1,1.1,0.3c0.3,0.2,0.5,0.5,0.7,0.9
				c0.2,0.4,0.2,0.8,0.2,1.3h-1v-0.4c0-0.5-0.1-0.8-0.2-1c-0.2-0.2-0.4-0.3-0.8-0.3c-0.4,0-0.7,0.1-0.9,0.4s-0.3,0.6-0.3,1.1
				c0,0.4,0.1,0.8,0.3,1c0.2,0.2,0.5,0.4,0.8,0.4c0.2,0,0.4-0.1,0.6-0.2s0.3-0.3,0.4-0.5l1,0.3c-0.2,0.4-0.4,0.7-0.8,0.9
				C56.4,31.7,56.1,31.8,55.7,31.8z M54.2,29.8v-0.7h3v0.7H54.2z"/>
			<path class="st1" d="M58.5,31.7v-4.3h0.9v1.1l-0.1-0.1c0.1-0.1,0.1-0.3,0.2-0.4c0.1-0.1,0.2-0.2,0.3-0.3c0.1-0.1,0.2-0.1,0.4-0.2
				c0.1,0,0.3-0.1,0.4-0.1c0.1,0,0.3,0,0.4,0v0.9c-0.1,0-0.3,0-0.4,0c-0.2,0-0.3,0.1-0.5,0.1c-0.1,0.1-0.2,0.2-0.3,0.3
				s-0.1,0.2-0.2,0.4c0,0.1-0.1,0.3-0.1,0.5v2.2H58.5z"/>
			<path class="st1" d="M62.9,31.7l-1.6-4.3h1l1.1,3.1l1.1-3.1h1l-1.6,4.3H62.9z"/>
			<path class="st1" d="M68.1,31.8c-0.4,0-0.8-0.1-1.2-0.3c-0.3-0.2-0.6-0.5-0.8-0.8c-0.2-0.3-0.3-0.7-0.3-1.2
				c0-0.5,0.1-0.9,0.3-1.2c0.2-0.3,0.4-0.6,0.8-0.8c0.3-0.2,0.7-0.3,1.1-0.3c0.4,0,0.8,0.1,1.1,0.3c0.3,0.2,0.5,0.5,0.7,0.9
				c0.2,0.4,0.2,0.8,0.2,1.3h-1v-0.4c0-0.5-0.1-0.8-0.2-1c-0.2-0.2-0.4-0.3-0.8-0.3c-0.4,0-0.7,0.1-0.9,0.4s-0.3,0.6-0.3,1.1
				c0,0.4,0.1,0.8,0.3,1c0.2,0.2,0.5,0.4,0.8,0.4c0.2,0,0.4-0.1,0.6-0.2s0.3-0.3,0.4-0.5l1,0.3c-0.2,0.4-0.4,0.7-0.8,0.9
				C68.9,31.7,68.5,31.8,68.1,31.8z M66.6,29.8v-0.7h3v0.7H66.6z"/>
			<path class="st1" d="M70.9,31.7v-4.3h0.9v1.1l-0.1-0.1c0.1-0.1,0.1-0.3,0.2-0.4c0.1-0.1,0.2-0.2,0.3-0.3c0.1-0.1,0.2-0.1,0.4-0.2
				c0.1,0,0.3-0.1,0.4-0.1c0.1,0,0.3,0,0.4,0v0.9c-0.1,0-0.3,0-0.4,0c-0.2,0-0.3,0.1-0.5,0.1c-0.1,0.1-0.2,0.2-0.3,0.3
				S72,28.9,72,29c0,0.1-0.1,0.3-0.1,0.5v2.2H70.9z"/>
		</g>
	</g>
</g>
<g>
	<path class="st0" d="M287.5,52.8h-64c-4.4,0-8-3.6-8-8v-24c0-4.4,3.6-8,8-8h64c4.4,0,8,3.6,8,8v24
		C295.5,49.2,291.9,52.8,287.5,52.8z"/>
	<path class="st0" d="M283.9,49.3h-64c-4.4,0-8-3.6-8-8v-24c0-4.4,3.6-8,8-8h64c4.4,0,8,3.6,8,8v24
		C291.9,45.7,288.3,49.3,283.9,49.3z"/>
	<path class="st0" d="M280.4,45.7h-64c-4.4,0-8-3.6-8-8v-24c0-4.4,3.6-8,8-8h64c4.4,0,8,3.6,8,8v24
		C288.4,42.1,284.8,45.7,280.4,45.7z"/>
	<path class="st0" d="M268.4,45.7h-40v-12c0-4.4,3.6-8,8-8h24c4.4,0,8,3.6,8,8V45.7z"/>
	<g>
		<g>
			<path class="st1" d="M215.4,17.5v-4.3h2.8v0.7h-2.1V15h1.7v0.7h-1.7v1.2h2.1v0.7H215.4z"/>
			<path class="st1" d="M218.5,17.5l1.2-1.6l-1.2-1.6h0.9l0.7,1l0.7-1h0.9l-1.2,1.6l1.2,1.6h-0.9l-0.7-1.1l-0.8,1.1H218.5z"/>
			<path class="st1" d="M221.8,14.9v-0.6h2.3v0.6H221.8z M224.1,17.5c-0.2,0-0.4,0.1-0.6,0.1s-0.4,0-0.6-0.1
				c-0.2-0.1-0.3-0.2-0.4-0.3c-0.1-0.1-0.1-0.3-0.1-0.4s0-0.3,0-0.5v-2.8h0.7v2.8c0,0.1,0,0.2,0,0.3c0,0.1,0,0.2,0.1,0.2
				c0.1,0.1,0.2,0.2,0.3,0.2c0.2,0,0.3,0,0.5,0V17.5z"/>
			<path class="st1" d="M226.3,17.6c-0.3,0-0.6-0.1-0.9-0.2s-0.4-0.3-0.6-0.6c-0.1-0.3-0.2-0.5-0.2-0.9c0-0.4,0.1-0.7,0.2-0.9
				c0.1-0.3,0.3-0.5,0.6-0.6c0.2-0.1,0.5-0.2,0.8-0.2c0.3,0,0.6,0.1,0.9,0.2c0.2,0.2,0.4,0.4,0.5,0.7c0.1,0.3,0.2,0.6,0.1,1H227
				v-0.3c0-0.4-0.1-0.6-0.2-0.8s-0.3-0.2-0.6-0.2c-0.3,0-0.5,0.1-0.7,0.3c-0.1,0.2-0.2,0.5-0.2,0.8c0,0.3,0.1,0.6,0.2,0.8
				c0.1,0.2,0.4,0.3,0.6,0.3c0.2,0,0.3,0,0.5-0.1s0.2-0.2,0.3-0.3l0.7,0.2c-0.1,0.3-0.3,0.5-0.6,0.7
				C226.9,17.6,226.6,17.6,226.3,17.6z M225.2,16.1v-0.5h2.2v0.5H225.2z"/>
			<path class="st1" d="M228.4,17.5v-3.2h0.6v0.8L229,15c0-0.1,0.1-0.2,0.2-0.3c0.1-0.1,0.1-0.2,0.2-0.2c0.1-0.1,0.2-0.1,0.3-0.1
				c0.1,0,0.2-0.1,0.3-0.1c0.1,0,0.2,0,0.3,0V15c-0.1,0-0.2,0-0.3,0c-0.1,0-0.2,0-0.3,0.1c-0.1,0.1-0.2,0.1-0.2,0.2
				c-0.1,0.1-0.1,0.2-0.1,0.3c0,0.1,0,0.2,0,0.3v1.6H228.4z"/>
			<path class="st1" d="M230.8,17.5v-3.2h0.6v1h0.1v2.2H230.8z M233.1,17.5V16c0-0.1,0-0.2,0-0.3c0-0.1,0-0.2-0.1-0.4
				c-0.1-0.1-0.1-0.2-0.2-0.3c-0.1-0.1-0.2-0.1-0.4-0.1c-0.1,0-0.2,0-0.3,0c-0.1,0-0.2,0.1-0.2,0.2c-0.1,0.1-0.1,0.2-0.2,0.3
				s-0.1,0.3-0.1,0.5l-0.4-0.2c0-0.3,0.1-0.5,0.2-0.8c0.1-0.2,0.3-0.4,0.5-0.5c0.2-0.1,0.5-0.2,0.8-0.2c0.2,0,0.4,0,0.6,0.1
				s0.3,0.2,0.4,0.3c0.1,0.1,0.2,0.3,0.2,0.4c0,0.1,0.1,0.3,0.1,0.4c0,0.1,0,0.2,0,0.3v1.8H233.1z"/>
			<path class="st1" d="M235.5,17.6c-0.2,0-0.4,0-0.6-0.1c-0.2-0.1-0.3-0.2-0.4-0.4s-0.1-0.3-0.1-0.5c0-0.2,0-0.3,0.1-0.4
				c0.1-0.1,0.1-0.2,0.2-0.3c0.1-0.1,0.2-0.2,0.4-0.2c0.1,0,0.3-0.1,0.5-0.1c0.2,0,0.4-0.1,0.6-0.1s0.4-0.1,0.6-0.1l-0.3,0.1
				c0-0.2,0-0.4-0.1-0.5c-0.1-0.1-0.3-0.2-0.5-0.2c-0.1,0-0.3,0-0.4,0.1s-0.2,0.2-0.3,0.4l-0.7-0.2c0.1-0.3,0.2-0.5,0.5-0.7
				s0.5-0.2,0.9-0.2c0.3,0,0.5,0,0.8,0.1s0.4,0.2,0.5,0.5c0.1,0.1,0.1,0.2,0.1,0.3s0,0.2,0,0.4v2h-0.6v-0.7l0.1,0.1
				c-0.1,0.2-0.3,0.4-0.5,0.5C236,17.6,235.8,17.6,235.5,17.6z M235.6,17.1c0.2,0,0.3,0,0.4-0.1c0.1-0.1,0.2-0.1,0.3-0.2
				c0.1-0.1,0.1-0.2,0.1-0.2c0-0.1,0.1-0.2,0.1-0.3c0-0.1,0-0.2,0-0.3l0.2,0.1c-0.2,0-0.4,0.1-0.6,0.1c-0.2,0-0.3,0.1-0.4,0.1
				c-0.1,0-0.2,0-0.3,0.1c-0.1,0-0.2,0.1-0.2,0.1s-0.1,0.1-0.1,0.1c0,0.1,0,0.1,0,0.2c0,0.1,0,0.2,0.1,0.2s0.1,0.1,0.2,0.1
				S235.5,17.1,235.6,17.1z"/>
			<path class="st1" d="M238.1,17.5v-4.4h0.7v4.4H238.1z"/>
			<path class="st1" d="M240.9,17.5v-4.3h1.4c0,0,0.1,0,0.2,0c0.1,0,0.2,0,0.3,0c0.3,0,0.6,0.2,0.9,0.4c0.2,0.2,0.4,0.5,0.5,0.8
				c0.1,0.3,0.2,0.6,0.2,1c0,0.4-0.1,0.7-0.2,1c-0.1,0.3-0.3,0.6-0.5,0.8c-0.2,0.2-0.5,0.3-0.9,0.4c-0.1,0-0.2,0-0.3,0
				c-0.1,0-0.2,0-0.2,0H240.9z M241.6,16.9h0.6c0.1,0,0.1,0,0.2,0s0.2,0,0.2,0c0.2,0,0.4-0.1,0.5-0.3c0.1-0.1,0.2-0.3,0.3-0.5
				c0.1-0.2,0.1-0.4,0.1-0.6c0-0.2,0-0.5-0.1-0.7c-0.1-0.2-0.2-0.4-0.3-0.5c-0.1-0.1-0.3-0.2-0.5-0.3c-0.1,0-0.2,0-0.2,0
				c-0.1,0-0.2,0-0.2,0h-0.6V16.9z"/>
			<path class="st1" d="M245.1,17.5v-4.3h0.7l2,3v-3h0.7v4.3h-0.7l-2-3v3H245.1z"/>
			<path class="st1" d="M251,17.6c-0.3,0-0.6-0.1-0.9-0.2c-0.3-0.1-0.5-0.3-0.6-0.5c-0.2-0.2-0.3-0.4-0.3-0.7l0.8-0.1
				c0.1,0.3,0.2,0.5,0.4,0.6c0.2,0.1,0.4,0.2,0.7,0.2c0.2,0,0.3,0,0.4-0.1c0.1,0,0.2-0.1,0.3-0.2c0.1-0.1,0.1-0.2,0.1-0.3
				c0-0.1,0-0.1,0-0.2c0-0.1,0-0.1-0.1-0.1c0,0-0.1-0.1-0.2-0.1c-0.1,0-0.1-0.1-0.2-0.1l-1.1-0.3c-0.1,0-0.2-0.1-0.3-0.1
				c-0.1,0-0.2-0.1-0.3-0.2c-0.1-0.1-0.2-0.2-0.2-0.3c-0.1-0.1-0.1-0.3-0.1-0.5c0-0.3,0.1-0.5,0.2-0.7c0.1-0.2,0.3-0.3,0.6-0.4
				c0.2-0.1,0.5-0.1,0.8-0.1c0.3,0,0.6,0.1,0.8,0.2c0.2,0.1,0.4,0.2,0.6,0.4c0.2,0.2,0.3,0.4,0.3,0.7l-0.8,0.1
				c0-0.2-0.1-0.3-0.2-0.4s-0.2-0.2-0.3-0.2c-0.1-0.1-0.3-0.1-0.4-0.1c-0.1,0-0.3,0-0.4,0.1s-0.2,0.1-0.3,0.2s-0.1,0.2-0.1,0.3
				c0,0.1,0,0.2,0.1,0.3c0.1,0.1,0.1,0.1,0.2,0.2c0.1,0,0.2,0.1,0.3,0.1l0.8,0.2c0.1,0,0.2,0.1,0.4,0.1s0.3,0.1,0.4,0.2
				s0.2,0.2,0.3,0.3s0.1,0.3,0.1,0.5c0,0.2,0,0.4-0.1,0.6c-0.1,0.2-0.2,0.3-0.4,0.4s-0.3,0.2-0.5,0.3S251.2,17.6,251,17.6z"/>
			<path class="st1" d="M255.5,17.5l-1.3-4.3h0.8l0.9,3.1l0.9-3.1l0.8,0l0.9,3.1l0.9-3.1h0.8l-1.3,4.3H258l-0.9-3.1l-0.9,3.1H255.5z
				"/>
			<path class="st1" d="M261.9,17.6c-0.3,0-0.6-0.1-0.9-0.2s-0.4-0.3-0.6-0.6c-0.1-0.3-0.2-0.5-0.2-0.9c0-0.4,0.1-0.7,0.2-0.9
				c0.1-0.3,0.3-0.5,0.6-0.6c0.2-0.1,0.5-0.2,0.8-0.2c0.3,0,0.6,0.1,0.9,0.2c0.2,0.2,0.4,0.4,0.5,0.7c0.1,0.3,0.2,0.6,0.1,1h-0.7
				v-0.3c0-0.4-0.1-0.6-0.2-0.8s-0.3-0.2-0.6-0.2c-0.3,0-0.5,0.1-0.7,0.3c-0.1,0.2-0.2,0.5-0.2,0.8c0,0.3,0.1,0.6,0.2,0.8
				c0.1,0.2,0.4,0.3,0.6,0.3c0.2,0,0.3,0,0.5-0.1s0.2-0.2,0.3-0.3l0.7,0.2c-0.1,0.3-0.3,0.5-0.6,0.7
				C262.5,17.6,262.2,17.6,261.9,17.6z M260.8,16.1v-0.5h2.2v0.5H260.8z"/>
			<path class="st1" d="M264,17.5v-4.3h0.7v2h-0.1v2.3H264z M265.6,17.6c-0.3,0-0.6-0.1-0.8-0.2c-0.2-0.2-0.4-0.4-0.5-0.6
				c-0.1-0.3-0.2-0.5-0.2-0.9c0-0.3,0.1-0.6,0.2-0.9c0.1-0.3,0.3-0.5,0.5-0.6s0.5-0.2,0.8-0.2c0.3,0,0.6,0.1,0.8,0.2
				c0.2,0.1,0.4,0.4,0.5,0.6s0.2,0.5,0.2,0.9c0,0.3-0.1,0.6-0.2,0.9c-0.1,0.3-0.3,0.5-0.5,0.6C266.1,17.6,265.9,17.6,265.6,17.6z
				 M265.5,17c0.2,0,0.3,0,0.5-0.1c0.1-0.1,0.2-0.2,0.3-0.4s0.1-0.3,0.1-0.5c0-0.2,0-0.4-0.1-0.5c-0.1-0.2-0.2-0.3-0.3-0.4
				c-0.1-0.1-0.3-0.1-0.5-0.1c-0.2,0-0.3,0-0.5,0.1c-0.1,0.1-0.2,0.2-0.3,0.4c-0.1,0.2-0.1,0.3-0.1,0.6c0,0.2,0,0.4,0.1,0.6
				c0.1,0.2,0.1,0.3,0.3,0.4S265.3,17,265.5,17z"/>
			<path class="st1" d="M267.7,17.5v-4.3h0.6v2.3h0.1v2H267.7z M270,17.5V16c0-0.1,0-0.2,0-0.3c0-0.1,0-0.2-0.1-0.4
				c-0.1-0.1-0.1-0.2-0.2-0.3c-0.1-0.1-0.2-0.1-0.4-0.1c-0.1,0-0.2,0-0.3,0c-0.1,0-0.2,0.1-0.2,0.2c-0.1,0.1-0.1,0.2-0.2,0.3
				s-0.1,0.3-0.1,0.5l-0.4-0.2c0-0.3,0.1-0.5,0.2-0.8c0.1-0.2,0.3-0.4,0.5-0.5c0.2-0.1,0.5-0.2,0.8-0.2c0.2,0,0.4,0,0.6,0.1
				s0.3,0.2,0.4,0.3c0.1,0.1,0.2,0.3,0.2,0.4c0,0.1,0.1,0.3,0.1,0.4c0,0.1,0,0.2,0,0.3v1.8H270z"/>
			<path class="st1" d="M272.9,17.6c-0.3,0-0.6-0.1-0.8-0.2s-0.4-0.3-0.6-0.6s-0.2-0.6-0.2-0.9c0-0.3,0.1-0.6,0.2-0.9
				c0.1-0.3,0.3-0.5,0.6-0.6c0.2-0.1,0.5-0.2,0.8-0.2c0.3,0,0.6,0.1,0.9,0.2s0.4,0.3,0.6,0.6c0.1,0.3,0.2,0.6,0.2,0.9
				c0,0.3-0.1,0.6-0.2,0.9s-0.3,0.5-0.6,0.6C273.5,17.6,273.2,17.6,272.9,17.6z M272.9,17c0.3,0,0.5-0.1,0.6-0.3
				c0.1-0.2,0.2-0.4,0.2-0.7c0-0.3-0.1-0.6-0.2-0.8c-0.1-0.2-0.4-0.3-0.6-0.3c-0.2,0-0.4,0-0.5,0.1s-0.2,0.2-0.3,0.4
				c-0.1,0.2-0.1,0.3-0.1,0.5c0,0.3,0.1,0.6,0.2,0.8C272.4,16.9,272.6,17,272.9,17z"/>
			<path class="st1" d="M276.6,17.6c-0.3,0-0.6-0.1-0.8-0.2s-0.4-0.3-0.6-0.6s-0.2-0.6-0.2-0.9c0-0.3,0.1-0.6,0.2-0.9
				c0.1-0.3,0.3-0.5,0.6-0.6c0.2-0.1,0.5-0.2,0.8-0.2c0.3,0,0.6,0.1,0.9,0.2s0.4,0.3,0.6,0.6c0.1,0.3,0.2,0.6,0.2,0.9
				c0,0.3-0.1,0.6-0.2,0.9s-0.3,0.5-0.6,0.6C277.2,17.6,276.9,17.6,276.6,17.6z M276.6,17c0.3,0,0.5-0.1,0.6-0.3
				c0.1-0.2,0.2-0.4,0.2-0.7c0-0.3-0.1-0.6-0.2-0.8c-0.1-0.2-0.4-0.3-0.6-0.3c-0.2,0-0.4,0-0.5,0.1s-0.2,0.2-0.3,0.4
				c-0.1,0.2-0.1,0.3-0.1,0.5c0,0.3,0.1,0.6,0.2,0.8C276.1,16.9,276.3,17,276.6,17z"/>
			<path class="st1" d="M278.9,17.5l0-4.3h0.7v2.6l1.2-1.6h0.9l-1.3,1.6l1.4,1.6h-1l-1.2-1.6v1.6H278.9z"/>
		</g>
	</g>
	<g>
		<g>
			<path class="st1" d="M235.2,37.5l1.5-4.3h0.6l1.5,4.3h-0.5l-1.4-4.1h0.2l-1.4,4.1H235.2z M235.9,36.5v-0.4h2.2v0.4H235.9z"/>
			<path class="st1" d="M239.3,37.5v-4.3h1.7c0,0,0.1,0,0.1,0s0.1,0,0.2,0c0.2,0,0.4,0.1,0.6,0.2c0.2,0.1,0.3,0.3,0.4,0.5
				s0.1,0.4,0.1,0.6c0,0.2,0,0.4-0.1,0.6c-0.1,0.2-0.2,0.3-0.4,0.5c-0.2,0.1-0.3,0.2-0.6,0.2c-0.1,0-0.1,0-0.2,0s-0.1,0-0.1,0h-1.2
				v1.6H239.3z M239.7,35.5h1.2c0,0,0.1,0,0.1,0s0.1,0,0.1,0c0.1,0,0.3-0.1,0.4-0.2c0.1-0.1,0.2-0.2,0.2-0.3c0-0.1,0.1-0.3,0.1-0.4
				s0-0.3-0.1-0.4c0-0.1-0.1-0.2-0.2-0.3c-0.1-0.1-0.2-0.2-0.4-0.2c0,0-0.1,0-0.1,0s-0.1,0-0.1,0h-1.2V35.5z"/>
			<path class="st1" d="M243,37.5v-4.3h0.4v4.3H243z"/>
			<path class="st1" d="M247.3,37.6c-0.4,0-0.8-0.1-1.1-0.3c-0.3-0.2-0.5-0.5-0.7-0.8c-0.2-0.3-0.2-0.7-0.2-1.2
				c0-0.4,0.1-0.8,0.2-1.2c0.2-0.3,0.4-0.6,0.7-0.8s0.7-0.3,1.1-0.3c0.5,0,0.9,0.1,1.2,0.4c0.3,0.3,0.5,0.6,0.7,1l-0.5,0.1
				c-0.1-0.3-0.3-0.6-0.5-0.8c-0.2-0.2-0.6-0.3-0.9-0.3c-0.3,0-0.6,0.1-0.8,0.2c-0.2,0.2-0.4,0.4-0.5,0.6c-0.1,0.3-0.2,0.6-0.2,1
				c0,0.4,0.1,0.7,0.2,1s0.3,0.5,0.5,0.6c0.2,0.2,0.5,0.2,0.8,0.2c0.4,0,0.7-0.1,0.9-0.3c0.2-0.2,0.4-0.5,0.5-0.8l0.5,0.1
				c-0.1,0.4-0.3,0.8-0.7,1C248.2,37.5,247.8,37.6,247.3,37.6z"/>
			<path class="st1" d="M249.9,37.5v-4.4h0.4v4.4H249.9z"/>
			<path class="st1" d="M251.3,33.7v-0.5h0.4v0.5H251.3z M251.3,37.5v-3.2h0.4v3.2H251.3z"/>
			<path class="st1" d="M254,37.6c-0.3,0-0.6-0.1-0.8-0.2c-0.2-0.1-0.4-0.3-0.5-0.6s-0.2-0.6-0.2-0.9c0-0.4,0.1-0.7,0.2-0.9
				s0.3-0.5,0.5-0.6c0.2-0.1,0.5-0.2,0.8-0.2c0.3,0,0.6,0.1,0.8,0.2c0.2,0.1,0.4,0.4,0.5,0.6c0.1,0.3,0.2,0.6,0.2,1H255v-0.2
				c0-0.4-0.1-0.7-0.3-1c-0.2-0.2-0.4-0.3-0.8-0.3c-0.3,0-0.6,0.1-0.8,0.3c-0.2,0.2-0.3,0.5-0.3,1c0,0.4,0.1,0.7,0.3,0.9
				c0.2,0.2,0.4,0.3,0.8,0.3c0.2,0,0.4-0.1,0.6-0.2c0.2-0.1,0.3-0.3,0.4-0.5l0.4,0.2c-0.1,0.3-0.3,0.5-0.6,0.7
				C254.6,37.6,254.3,37.6,254,37.6z M252.8,36v-0.4h2.5V36H252.8z"/>
			<path class="st1" d="M256.1,37.5v-3.2h0.4v0.8h0v2.4H256.1z M258.5,37.5v-1.7c0-0.2,0-0.3-0.1-0.5s-0.1-0.3-0.2-0.4
				c-0.1-0.1-0.2-0.2-0.3-0.3c-0.1-0.1-0.3-0.1-0.4-0.1c-0.2,0-0.3,0-0.4,0.1c-0.1,0.1-0.2,0.1-0.3,0.2s-0.1,0.2-0.2,0.4
				c0,0.1-0.1,0.3-0.1,0.5l-0.3-0.1c0-0.3,0.1-0.6,0.2-0.8c0.1-0.2,0.3-0.4,0.5-0.5s0.4-0.2,0.7-0.2c0.2,0,0.4,0,0.5,0.1
				c0.1,0.1,0.3,0.1,0.4,0.2c0.1,0.1,0.2,0.2,0.2,0.3c0.1,0.1,0.1,0.3,0.1,0.4s0,0.3,0,0.4v1.8H258.5z"/>
			<path class="st1" d="M259.3,34.7v-0.4h2.1v0.4H259.3z M261.5,37.5c-0.2,0-0.4,0.1-0.5,0s-0.3,0-0.5-0.1c-0.1-0.1-0.2-0.2-0.3-0.3
				c-0.1-0.1-0.1-0.2-0.1-0.4s0-0.3,0-0.4v-3h0.4v2.9c0,0.1,0,0.2,0,0.3c0,0.1,0,0.2,0.1,0.2c0.1,0.1,0.2,0.2,0.3,0.2
				c0.2,0,0.4,0,0.6,0V37.5z"/>
		</g>
	</g>
</g>
<g>
	<path class="st0" d="M175,69.3v20c0,2.8-11.2,5-25,5s-25-2.2-25-5v-20H175z"/>
	<ellipse class="st0" cx="150" cy="69.3" rx="25" ry="5"/>
	<g>
		<g>
			<path class="st1" d="M127.4,84.1v-5.8h2.4c0.1,0,0.1,0,0.2,0c0.1,0,0.2,0,0.2,0c0.3,0,0.6,0.2,0.8,0.3c0.2,0.2,0.4,0.4,0.5,0.6
				s0.2,0.5,0.2,0.9c0,0.3-0.1,0.6-0.2,0.9c-0.1,0.3-0.3,0.5-0.5,0.6c-0.2,0.2-0.5,0.3-0.8,0.3c-0.1,0-0.2,0-0.2,0
				c-0.1,0-0.2,0-0.2,0h-1.4v2H127.4z M128.4,81.2h1.4c0.1,0,0.1,0,0.2,0c0.1,0,0.1,0,0.2,0c0.2,0,0.3-0.1,0.4-0.2
				c0.1-0.1,0.2-0.2,0.2-0.3s0.1-0.3,0.1-0.4c0-0.1,0-0.2-0.1-0.4c0-0.1-0.1-0.2-0.2-0.3c-0.1-0.1-0.2-0.2-0.4-0.2
				c-0.1,0-0.1,0-0.2,0c-0.1,0-0.1,0-0.2,0h-1.4V81.2z"/>
			<path class="st1" d="M134.4,84.2c-0.4,0-0.8-0.1-1.1-0.3s-0.6-0.5-0.8-0.8c-0.2-0.3-0.3-0.7-0.3-1.2c0-0.5,0.1-0.9,0.3-1.2
				c0.2-0.3,0.4-0.6,0.8-0.8c0.3-0.2,0.7-0.3,1.1-0.3c0.4,0,0.8,0.1,1.1,0.3c0.3,0.2,0.6,0.5,0.8,0.8s0.3,0.7,0.3,1.2
				c0,0.4-0.1,0.8-0.3,1.2s-0.4,0.6-0.8,0.8S134.9,84.2,134.4,84.2z M134.4,83.3c0.4,0,0.7-0.1,0.9-0.4c0.2-0.3,0.3-0.6,0.3-1
				c0-0.4-0.1-0.8-0.3-1c-0.2-0.2-0.5-0.4-0.9-0.4c-0.3,0-0.5,0.1-0.6,0.2c-0.2,0.1-0.3,0.3-0.4,0.5s-0.1,0.4-0.1,0.7
				c0,0.4,0.1,0.8,0.3,1C133.8,83.2,134.1,83.3,134.4,83.3z"/>
			<path class="st1" d="M139.1,84.2c-0.5,0-1-0.1-1.3-0.4c-0.3-0.2-0.5-0.6-0.6-1l1-0.2c0.1,0.2,0.2,0.4,0.3,0.5
				c0.2,0.1,0.4,0.2,0.7,0.2c0.2,0,0.4,0,0.5-0.1c0.1-0.1,0.2-0.2,0.2-0.4c0-0.1,0-0.2-0.1-0.2c0-0.1-0.1-0.1-0.3-0.2
				c-0.2-0.1-0.4-0.1-0.7-0.2c-0.4-0.1-0.7-0.2-0.9-0.3s-0.4-0.2-0.5-0.4c-0.1-0.2-0.1-0.3-0.1-0.6c0-0.3,0.1-0.5,0.2-0.7
				c0.1-0.2,0.3-0.4,0.6-0.5c0.3-0.1,0.6-0.2,0.9-0.2c0.3,0,0.6,0.1,0.9,0.2c0.3,0.1,0.5,0.3,0.6,0.4c0.2,0.2,0.3,0.4,0.3,0.7
				l-1,0.2c0-0.2-0.1-0.3-0.2-0.4s-0.3-0.2-0.6-0.2c-0.2,0-0.4,0-0.5,0.1s-0.2,0.2-0.2,0.3c0,0.1,0,0.2,0.1,0.2
				c0.1,0.1,0.2,0.1,0.3,0.2c0.2,0.1,0.4,0.1,0.8,0.2c0.3,0.1,0.6,0.2,0.8,0.3c0.2,0.1,0.4,0.2,0.4,0.4s0.1,0.3,0.1,0.6
				c0,0.4-0.2,0.8-0.5,1S139.7,84.2,139.1,84.2z"/>
			<path class="st1" d="M141.3,80.6v-0.8h3v0.8H141.3z M144.3,84.1c-0.3,0.1-0.6,0.1-0.8,0.1c-0.3,0-0.5-0.1-0.7-0.2
				s-0.4-0.2-0.5-0.5c-0.1-0.2-0.2-0.4-0.2-0.6c0-0.2,0-0.4,0-0.7v-3.8h1v3.7c0,0.2,0,0.3,0,0.5c0,0.1,0,0.2,0.1,0.3
				c0.1,0.2,0.2,0.2,0.5,0.3c0.2,0,0.5,0,0.7,0V84.1z"/>
			<path class="st1" d="M147,84.2c-0.4,0-0.7-0.1-1-0.3c-0.3-0.2-0.5-0.5-0.7-0.8S145,82.4,145,82c0-0.4,0.1-0.8,0.2-1.2
				s0.4-0.6,0.7-0.8c0.3-0.2,0.7-0.3,1.1-0.3c0.4,0,0.8,0.1,1,0.3c0.3,0.2,0.5,0.5,0.6,0.8s0.2,0.7,0.2,1.2c0,0.4-0.1,0.8-0.2,1.2
				s-0.4,0.6-0.6,0.8C147.8,84.1,147.4,84.2,147,84.2z M147.1,86.2c-0.2,0-0.5,0-0.7-0.1c-0.2-0.1-0.4-0.2-0.6-0.3
				c-0.2-0.1-0.3-0.3-0.4-0.5l0.9-0.4c0.1,0.2,0.2,0.3,0.4,0.3s0.3,0.1,0.5,0.1c0.2,0,0.4,0,0.5-0.1c0.2-0.1,0.3-0.2,0.4-0.3
				c0.1-0.1,0.1-0.3,0.1-0.5v-1.2h0.1v-3.3h0.8v4.5c0,0.1,0,0.2,0,0.3c0,0.1,0,0.2,0,0.3c-0.1,0.3-0.2,0.5-0.4,0.7s-0.4,0.3-0.7,0.4
				S147.4,86.2,147.1,86.2z M147.1,83.4c0.3,0,0.5-0.1,0.6-0.2c0.2-0.1,0.3-0.3,0.3-0.5c0.1-0.2,0.1-0.5,0.1-0.7
				c0-0.3,0-0.5-0.1-0.7s-0.2-0.4-0.3-0.5c-0.2-0.1-0.4-0.2-0.6-0.2c-0.3,0-0.5,0.1-0.6,0.2c-0.2,0.1-0.3,0.3-0.4,0.5
				S146,81.7,146,82c0,0.3,0,0.5,0.1,0.7c0.1,0.2,0.2,0.4,0.4,0.5C146.7,83.3,146.9,83.4,147.1,83.4z"/>
			<path class="st1" d="M150.2,84.1v-4.3h0.9v1.1l-0.1-0.1c0.1-0.1,0.1-0.3,0.2-0.4c0.1-0.1,0.2-0.2,0.3-0.3
				c0.1-0.1,0.2-0.1,0.4-0.2c0.1,0,0.3-0.1,0.4-0.1c0.1,0,0.3,0,0.4,0v0.9c-0.1,0-0.3,0-0.4,0c-0.2,0-0.3,0.1-0.4,0.1
				c-0.1,0.1-0.2,0.2-0.3,0.3s-0.1,0.2-0.2,0.4s-0.1,0.3-0.1,0.5v2.2H150.2z"/>
			<path class="st1" d="M155.3,84.2c-0.4,0-0.8-0.1-1.2-0.3c-0.3-0.2-0.6-0.5-0.8-0.8s-0.3-0.7-0.3-1.2c0-0.5,0.1-0.9,0.3-1.2
				c0.2-0.3,0.4-0.6,0.8-0.8c0.3-0.2,0.7-0.3,1.1-0.3c0.4,0,0.8,0.1,1.1,0.3s0.5,0.5,0.7,0.9c0.2,0.4,0.2,0.8,0.2,1.3h-1v-0.4
				c0-0.5-0.1-0.8-0.2-1c-0.2-0.2-0.4-0.3-0.8-0.3c-0.4,0-0.7,0.1-0.9,0.4c-0.2,0.2-0.3,0.6-0.3,1.1c0,0.4,0.1,0.8,0.3,1
				c0.2,0.2,0.5,0.4,0.8,0.4c0.2,0,0.4-0.1,0.6-0.2c0.2-0.1,0.3-0.3,0.4-0.5l1,0.3c-0.2,0.4-0.4,0.7-0.8,0.9
				C156.1,84.1,155.8,84.2,155.3,84.2z M153.8,82.2v-0.7h3v0.7H153.8z"/>
			<path class="st1" d="M160.3,84.2c-0.4,0-0.8-0.1-1.1-0.2c-0.3-0.1-0.6-0.4-0.8-0.6c-0.2-0.3-0.4-0.6-0.4-1l1-0.2
				c0.1,0.3,0.3,0.6,0.5,0.8c0.3,0.2,0.6,0.3,0.9,0.3c0.2,0,0.4,0,0.6-0.1c0.2-0.1,0.3-0.2,0.4-0.3c0.1-0.1,0.2-0.3,0.2-0.5
				c0-0.1,0-0.2,0-0.2c0-0.1-0.1-0.1-0.1-0.2c-0.1-0.1-0.1-0.1-0.2-0.1s-0.2-0.1-0.3-0.1l-1.5-0.4c-0.1,0-0.3-0.1-0.4-0.2
				c-0.1-0.1-0.3-0.1-0.4-0.3c-0.1-0.1-0.2-0.3-0.3-0.4s-0.1-0.4-0.1-0.6c0-0.4,0.1-0.7,0.3-0.9c0.2-0.3,0.4-0.4,0.8-0.6
				c0.3-0.1,0.7-0.2,1.1-0.2c0.4,0,0.7,0.1,1.1,0.2c0.3,0.1,0.6,0.3,0.8,0.6c0.2,0.2,0.4,0.6,0.4,0.9l-1,0.2c0-0.2-0.1-0.4-0.2-0.5
				s-0.3-0.3-0.4-0.3c-0.2-0.1-0.4-0.1-0.6-0.1c-0.2,0-0.4,0-0.5,0.1c-0.2,0.1-0.3,0.1-0.4,0.3s-0.2,0.2-0.2,0.4
				c0,0.1,0,0.3,0.1,0.3c0.1,0.1,0.2,0.2,0.3,0.2c0.1,0.1,0.3,0.1,0.4,0.1l1,0.3c0.1,0,0.3,0.1,0.5,0.2c0.2,0.1,0.3,0.2,0.5,0.3
				c0.2,0.1,0.3,0.3,0.4,0.5s0.2,0.4,0.2,0.7c0,0.3-0.1,0.6-0.2,0.8c-0.1,0.2-0.3,0.4-0.5,0.6c-0.2,0.1-0.5,0.3-0.7,0.3
				C160.9,84.2,160.6,84.2,160.3,84.2z"/>
			<path class="st1" d="M165.9,84.2c-0.6,0-1.1-0.1-1.5-0.4c-0.4-0.3-0.7-0.6-0.9-1.1c-0.2-0.5-0.3-1-0.3-1.6s0.1-1.1,0.3-1.6
				c0.2-0.5,0.5-0.8,0.9-1.1c0.4-0.3,0.9-0.4,1.5-0.4s1.1,0.1,1.5,0.4c0.4,0.3,0.7,0.6,0.9,1.1c0.2,0.5,0.3,1,0.3,1.6
				s-0.1,1.1-0.3,1.6c-0.2,0.5-0.5,0.8-0.9,1.1C167,84.1,166.5,84.2,165.9,84.2z M165.9,83.3c0.4,0,0.7-0.1,1-0.3
				c0.3-0.2,0.5-0.4,0.6-0.7c0.1-0.3,0.2-0.7,0.2-1.1c0-0.4-0.1-0.8-0.2-1.1c-0.1-0.3-0.3-0.6-0.6-0.7c-0.3-0.2-0.6-0.3-1-0.3
				c-0.4,0-0.7,0.1-1,0.3c-0.3,0.2-0.4,0.4-0.6,0.7c-0.1,0.3-0.2,0.7-0.2,1.1c0,0.4,0.1,0.8,0.2,1.1s0.3,0.6,0.6,0.7
				C165.2,83.2,165.5,83.3,165.9,83.3z M168,84.2l-1.6-1.6l0.6-0.6l1.6,1.6L168,84.2z"/>
			<path class="st1" d="M169.5,84.1v-5.8h1v4.9h2.5v0.9H169.5z"/>
		</g>
	</g>
</g>
<g>
	<line class="st2" x1="91.6" y1="29.3" x2="110" y2="29.3"/>
	<g>
		<line class="st3" x1="91.6" y1="29.3" x2="104" y2="29.3"/>
		<g>
			<path class="st1" d="M110,29.3c-2.8,1.1-6.4,2.9-8.5,4.8l1.7-4.8l-1.7-4.8C103.6,26.4,107.2,28.2,110,29.3z"/>
		</g>
	</g>
</g>
<g>
	<line class="st2" x1="208.4" y1="25.7" x2="190" y2="29.3"/>
	<g>
		<line class="st3" x1="208.4" y1="25.7" x2="195.9" y2="28.1"/>
		<g>
			<path class="st1" d="M190,29.3c2.6-1.6,5.7-4,7.5-6.3l-0.8,5l2.6,4.3C196.8,30.9,193,29.8,190,29.3z"/>
		</g>
	</g>
</g>
<g>
	<line class="st2" x1="150" y1="49.3" x2="150" y2="64.3"/>
	<g>
		<line class="st3" x1="150" y1="49.3" x2="150" y2="58.2"/>
		<g>
			<path class="st1" d="M150,64.3c-1.1-2.8-2.9-6.4-4.8-8.5l4.8,1.7l4.8-1.7C152.9,57.9,151.1,61.4,150,64.3z"/>
		</g>
	</g>
</g>
</svg>
